<svg xmlns="http://www.w3.org/2000/svg" width="20" height="20" viewBox="0 0 20 20" fill="none">
  <path d="M8.14 0.00598145C8.847 0.00598145 9.25 0.709981 9.25 1.41698V5.74998H8.355C8.18095 5.31972 7.86267 4.96338 7.45471 4.74204C7.04675 4.52071 6.57451 4.44815 6.11892 4.53681C5.66333 4.62547 5.25276 4.86982 4.95757 5.22799C4.66238 5.58616 4.50095 6.03585 4.50095 6.49998C4.50095 6.96412 4.66238 7.4138 4.95757 7.77197C5.25276 8.13014 5.66333 8.3745 6.11892 8.46315C6.57451 8.55181 7.04675 8.47926 7.45471 8.25792C7.86267 8.03658 8.18095 7.68025 8.355 7.24998H9.25V18.148C9.25 18.744 8.998 19.337 8.467 19.608C7.9855 19.8602 7.45054 19.9932 6.907 19.996C5.397 19.996 4.274 19.232 3.551 18.328C3.05028 17.7041 2.70113 16.9726 2.531 16.191C2.06402 16.0532 1.63152 15.818 1.262 15.501C0.552 14.89 0 13.91 0 12.466C0 11.711 0.054 11.053 0.19 10.5H4.4C5.078 10.5 5.64 11 5.735 11.651C5.30642 11.8283 4.95278 12.149 4.73462 12.5583C4.51646 12.9676 4.44734 13.44 4.53908 13.8947C4.63083 14.3493 4.87773 14.758 5.23755 15.0506C5.59736 15.3433 6.04771 15.5018 6.51151 15.499C6.97531 15.4963 7.42373 15.3324 7.78002 15.0354C8.13631 14.7385 8.37832 14.3269 8.46463 13.8712C8.55094 13.4155 8.47618 12.944 8.25314 12.5373C8.03011 12.1307 7.67267 11.8142 7.242 11.642C7.18947 10.9241 6.86725 10.2527 6.34007 9.76262C5.81289 9.27254 5.11979 9.00008 4.4 8.99998H1.04C1.18975 8.87621 1.35644 8.77452 1.535 8.69798C1.43192 8.33054 1.37218 7.9523 1.357 7.57098C1.324 6.83598 1.434 6.07098 1.652 5.38998C1.868 4.71998 2.21 4.06698 2.69 3.61598C2.9911 3.32259 3.37257 3.12524 3.786 3.04898C3.985 2.20898 4.492 1.51498 5.139 1.01198C5.97 0.363981 7.059 0.00598145 8.139 0.00598145H8.14ZM10.75 15H12.4C13.1559 15 13.8808 14.6997 14.4153 14.1652C14.9497 13.6308 15.25 12.9058 15.25 12.15V10.355C15.6803 10.1809 16.0366 9.86265 16.2579 9.45469C16.4793 9.04673 16.5518 8.57449 16.4632 8.1189C16.3745 7.66331 16.1302 7.25274 15.772 6.95755C15.4138 6.66236 14.9641 6.50093 14.5 6.50093C14.0359 6.50093 13.5862 6.66236 13.228 6.95755C12.8698 7.25274 12.6255 7.66331 12.5368 8.1189C12.4482 8.57449 12.5207 9.04673 12.7421 9.45469C12.9634 9.86265 13.3197 10.1809 13.75 10.355V12.15C13.75 12.508 13.6078 12.8514 13.3546 13.1046C13.1014 13.3577 12.758 13.5 12.4 13.5H10.75V1.41698C10.75 0.709981 11.153 0.00598145 11.86 0.00598145C12.942 0.00598145 14.03 0.363981 14.861 1.01198C15.508 1.51498 16.015 2.20998 16.214 3.04898C16.634 3.11898 17.008 3.33298 17.31 3.61598C17.79 4.06698 18.132 4.71898 18.348 5.38998C18.566 6.07098 18.676 6.83598 18.643 7.57098C18.626 7.94698 18.571 8.33098 18.465 8.69798L18.531 8.72798C18.901 8.90198 19.201 9.17498 19.425 9.53798C19.85 10.223 20 11.209 20 12.466C20 13.911 19.448 14.892 18.738 15.501C18.3682 15.8181 17.9353 16.0533 17.468 16.191C17.2981 16.9725 16.9493 17.704 16.449 18.328C15.726 19.232 14.603 19.996 13.092 19.996C12.5485 19.9936 12.0136 19.8608 11.532 19.609C11.002 19.337 10.75 18.744 10.75 18.148V15ZM6 6.49998C6 6.36737 6.05268 6.2402 6.14645 6.14643C6.24021 6.05266 6.36739 5.99998 6.5 5.99998C6.63261 5.99998 6.75979 6.05266 6.85355 6.14643C6.94732 6.2402 7 6.36737 7 6.49998C7 6.63259 6.94732 6.75977 6.85355 6.85354C6.75979 6.9473 6.63261 6.99998 6.5 6.99998C6.36739 6.99998 6.24021 6.9473 6.14645 6.85354C6.05268 6.75977 6 6.63259 6 6.49998ZM6.5 13C6.36739 13 6.24021 13.0527 6.14645 13.1464C6.05268 13.2402 6 13.3674 6 13.5C6 13.6326 6.05268 13.7598 6.14645 13.8535C6.24021 13.9473 6.36739 14 6.5 14C6.63261 14 6.75979 13.9473 6.85355 13.8535C6.94732 13.7598 7 13.6326 7 13.5C7 13.3674 6.94732 13.2402 6.85355 13.1464C6.75979 13.0527 6.63261 13 6.5 13ZM14 8.49998C14 8.63259 14.0527 8.75977 14.1464 8.85353C14.2402 8.9473 14.3674 8.99998 14.5 8.99998C14.6326 8.99998 14.7598 8.9473 14.8536 8.85353C14.9473 8.75977 15 8.63259 15 8.49998C15 8.36737 14.9473 8.2402 14.8536 8.14643C14.7598 8.05266 14.6326 7.99998 14.5 7.99998C14.3674 7.99998 14.2402 8.05266 14.1464 8.14643C14.0527 8.2402 14 8.36737 14 8.49998Z"/>
</svg>