<svg xmlns="http://www.w3.org/2000/svg" width="20" height="21" viewBox="0 0 20 21" fill="none">
  <path fill-rule="evenodd" clip-rule="evenodd" d="M2.5 5.5C2.5 4.83696 2.76339 4.20107 3.23223 3.73223C3.70107 3.26339 4.33696 3 5 3H15C15.663 3 16.2989 3.26339 16.7678 3.73223C17.2366 4.20107 17.5 4.83696 17.5 5.5V15.5C17.5 16.163 17.2366 16.7989 16.7678 17.2678C16.2989 17.7366 15.663 18 15 18H5C4.33696 18 3.70107 17.7366 3.23223 17.2678C2.76339 16.7989 2.5 16.163 2.5 15.5V5.5ZM10.8333 7.16667C10.8333 6.94565 10.7455 6.73369 10.5893 6.57741C10.433 6.42113 10.221 6.33333 10 6.33333C9.77899 6.33333 9.56702 6.42113 9.41074 6.57741C9.25446 6.73369 9.16667 6.94565 9.16667 7.16667V13.8333C9.16667 14.0543 9.25446 14.2663 9.41074 14.4226C9.56702 14.5789 9.77899 14.6667 10 14.6667C10.221 14.6667 10.433 14.5789 10.5893 14.4226C10.7455 14.2663 10.8333 14.0543 10.8333 13.8333V7.16667ZM7.5 9.66667C7.5 9.44565 7.4122 9.23369 7.25592 9.07741C7.09964 8.92113 6.88768 8.83333 6.66667 8.83333C6.44565 8.83333 6.23369 8.92113 6.07741 9.07741C5.92113 9.23369 5.83333 9.44565 5.83333 9.66667V13.8333C5.83333 14.0543 5.92113 14.2663 6.07741 14.4226C6.23369 14.5789 6.44565 14.6667 6.66667 14.6667C6.88768 14.6667 7.09964 14.5789 7.25592 14.4226C7.4122 14.2663 7.5 14.0543 7.5 13.8333V9.66667ZM14.1667 12.1667C14.1667 11.9457 14.0789 11.7337 13.9226 11.5774C13.7663 11.4211 13.5543 11.3333 13.3333 11.3333C13.1123 11.3333 12.9004 11.4211 12.7441 11.5774C12.5878 11.7337 12.5 11.9457 12.5 12.1667V13.8333C12.5 14.0543 12.5878 14.2663 12.7441 14.4226C12.9004 14.5789 13.1123 14.6667 13.3333 14.6667C13.5543 14.6667 13.7663 14.5789 13.9226 14.4226C14.0789 14.2663 14.1667 14.0543 14.1667 13.8333V12.1667Z" fill="#E58320"/>
</svg>