<svg xmlns="http://www.w3.org/2000/svg" width="18" height="18" viewBox="0 0 18 18" fill="none">
  <path d="M7.5 9.75C9.15685 9.75 10.5 8.40685 10.5 6.75C10.5 5.09315 9.15685 3.75 7.5 3.75C5.84315 3.75 4.5 5.09315 4.5 6.75C4.5 8.40685 5.84315 9.75 7.5 9.75Z"/>
  <path d="M12.2925 11.6691C11.0325 11.0241 9.39755 10.4991 7.50005 10.4991C5.60255 10.4991 3.96755 11.0241 2.70755 11.6691C2.34159 11.8576 2.03502 12.1438 1.82187 12.4959C1.60872 12.8481 1.49733 13.2524 1.50005 13.6641V14.2491C1.50005 15.0741 2.17505 15.7491 3.00005 15.7491H12C12.825 15.7491 13.5 15.0741 13.5 14.2491V13.6641C13.5 12.8241 13.0425 12.0516 12.2925 11.6691ZM15.8325 1.38657C15.7673 1.30205 15.6847 1.23247 15.5903 1.18253C15.496 1.13259 15.392 1.10344 15.2854 1.09705C15.1788 1.09065 15.0721 1.10716 14.9724 1.14545C14.8727 1.18375 14.7824 1.24295 14.7075 1.31907C14.445 1.58157 14.415 2.00157 14.64 2.29407C15.5175 3.41907 16.62 6.21657 14.64 8.75157C14.415 9.04407 14.445 9.46407 14.7075 9.72657C15.03 10.0491 15.555 10.0116 15.8325 9.65907C16.9575 8.21157 18.345 4.61907 15.8325 1.38657ZM13.7325 3.62907C13.6743 3.52956 13.5942 3.44465 13.4981 3.38082C13.4021 3.31698 13.2928 3.27591 13.1785 3.26072C13.0643 3.24553 12.948 3.25663 12.8387 3.29317C12.7293 3.32971 12.6297 3.39073 12.5475 3.47157C12.3 3.71907 12.2775 4.10157 12.45 4.40907C12.6375 4.73907 13.005 5.67657 12.4425 6.65157C12.27 6.95157 12.3 7.32657 12.5475 7.56657C12.9 7.91907 13.485 7.82907 13.7325 7.40157C14.6025 5.90907 14.1675 4.38657 13.7325 3.62907Z"/>
</svg>