<svg xmlns="http://www.w3.org/2000/svg" width="24" height="24" viewBox="0 0 24 24" fill="none">
  <rect width="24" height="24" rx="4" transform="matrix(-1 0 0 1 24 0)" fill="#4E4E4E"/>
  <path d="M6.99988 6.50001C6.99988 6.3674 6.9472 6.24022 6.85345 6.14645C6.75969 6.05269 6.63253 6.00001 6.49994 6.00001C6.36735 6.00001 6.24019 6.05269 6.14643 6.14645C6.05267 6.24022 6 6.3674 6 6.50001V17.5C6 17.6326 6.05267 17.7598 6.14643 17.8536C6.24019 17.9473 6.36735 18 6.49994 18C6.63253 18 6.75969 17.9473 6.85345 17.8536C6.9472 17.7598 6.99988 17.6326 6.99988 17.5V6.50001ZM18 7.25201C18 6.25101 16.8821 5.65601 16.0517 6.21551L9.05112 10.9315C8.88197 11.0456 8.74331 11.1993 8.64723 11.3793C8.55116 11.5592 8.50059 11.76 8.49995 11.964C8.49931 12.1681 8.54861 12.3691 8.64355 12.5497C8.7385 12.7303 8.87619 12.8849 9.04462 13L16.0452 17.78C16.8751 18.346 18 17.752 18 16.747V7.25301V7.25201Z" fill="white"/>
</svg>