<svg xmlns="http://www.w3.org/2000/svg" width="97" height="23" viewBox="0 0 97 23" fill="none">
  <path d="M8.45703 10.3246C5.06995 10.2764 2.68536 13.888 4.03538 16.9783C5.70085 20.892 11.2052 20.8732 12.876 16.9703C14.2367 13.9014 11.8094 10.2738 8.45436 10.3219L8.45703 10.3246ZM13.2529 21.3518V21.0791C10.3283 23.5118 5.68481 23.3139 3.04626 20.5311C0.0574982 17.6894 0.0574982 12.5514 3.04626 9.70972C7.81276 4.88716 16.1481 8.32764 16.1107 15.1204V21.3518C16.1107 21.7421 15.9717 22.0789 15.6937 22.3569C14.8436 23.2578 13.2155 22.5922 13.2556 21.3518H13.2529Z"/>
  <path d="M21.0968 8.89163V9.16431C22.4842 8.06025 24.0989 7.46412 25.8927 7.46946C27.0476 7.49085 28.5419 7.59511 29.4188 8.42649C30.4854 9.50916 29.1755 11.3724 27.764 10.6667C25.3794 9.69361 22.4468 10.8271 21.471 13.249C21.2197 13.8318 21.0941 14.4547 21.0941 15.1203V21.3517C21.0941 21.742 20.9551 22.0788 20.6771 22.3568C19.827 23.2577 18.1989 22.5921 18.239 21.3517V8.88896C18.239 8.49867 18.378 8.16184 18.656 7.88382C19.5035 6.9856 21.1342 7.64322 21.0941 8.88896L21.0968 8.89163Z" />
  <path d="M39.0664 10.3246C35.69 10.2658 33.2894 13.9014 34.6448 16.9783C36.3102 20.892 41.8146 20.8732 43.4854 16.9703C44.8461 13.9014 42.4187 10.2711 39.0637 10.3219L39.0664 10.3246ZM43.8623 21.3518V21.0791C40.9377 23.5118 36.2942 23.3139 33.6556 20.5311C30.6669 17.6894 30.6669 12.5514 33.6556 9.70972C38.4221 4.88716 46.7575 8.32764 46.7201 15.1204V21.3518C46.7201 21.7421 46.5811 22.0789 46.303 22.3569C45.4529 23.2578 43.8249 22.5922 43.865 21.3518H43.8623Z"/>
  <path d="M48.9395 8.31678C48.9395 8.07886 49.0223 7.88104 49.1854 7.7153C49.3485 7.54956 49.549 7.46936 49.7869 7.46936C50.0248 7.46936 50.2253 7.55223 50.3884 7.7153C50.5515 7.87837 50.6343 8.07886 50.6343 8.31678V9.90202C52.3105 8.27936 54.1043 7.46936 56.0184 7.46936C57.9325 7.46936 59.6541 8.16174 61.0201 9.54648C62.4129 10.9312 63.1107 12.602 63.1107 14.5615V21.9263C63.1107 22.1643 63.0278 22.3648 62.8567 22.5278C62.6883 22.6909 62.4851 22.7738 62.2499 22.7738C62.0146 22.7738 61.8114 22.6909 61.6484 22.5278C61.4853 22.3648 61.4024 22.1643 61.4024 21.9263V14.5615C61.4024 13.0591 60.8731 11.792 59.8171 10.7628C58.7612 9.69618 57.494 9.16421 56.0184 9.16421C54.5427 9.16421 53.2729 9.69618 52.2062 10.7628C51.1583 11.8027 50.6343 13.0672 50.6343 14.5615V21.9263C50.6343 22.1643 50.5515 22.3648 50.3884 22.5278C50.2253 22.6909 50.0248 22.7738 49.7869 22.7738C49.549 22.7738 49.3485 22.6909 49.1854 22.5278C49.0223 22.3648 48.9395 22.1643 48.9395 21.9263V8.31678Z"/>
  <path d="M78.9014 15.1227C78.9334 9.83236 72.464 7.15109 68.7481 10.915C66.4143 13.1365 66.4143 17.1116 68.7481 19.3331C72.464 23.0944 78.9334 20.4131 78.9014 15.1254V15.1227ZM78.9014 1.75913C78.9174 0.649725 80.5962 0.631013 80.6096 1.75913V15.1227C80.6096 17.2373 79.8638 19.0391 78.3694 20.5334C73.5922 25.3586 65.2702 21.9155 65.3049 15.1227C65.2007 10.9979 68.831 7.36762 72.9586 7.46921C75.3325 7.43445 77.3375 8.49841 78.904 10.244V1.75913H78.9014Z"/>
  <path d="M96.9993 21.9263C96.9806 23.0411 95.3045 23.0518 95.2911 21.9263V20.3411C92.2649 23.418 87.8486 23.6212 84.8919 20.71C83.5152 19.3252 82.8281 17.6491 82.8281 15.6816V8.31675C82.8281 8.07883 82.911 7.88101 83.0741 7.71527C83.5713 7.18329 84.5551 7.57893 84.523 8.31675V15.6816C84.4294 18.5954 87.0466 21.1484 89.907 21.0789C92.7915 21.1457 95.3686 18.5847 95.2911 15.6816V8.31675C95.2804 7.85428 95.676 7.45864 96.1385 7.46933C96.5983 7.45864 97.01 7.8516 96.9993 8.31675V21.9263Z"/>
</svg>