<svg xmlns="http://www.w3.org/2000/svg" width="41" height="26" viewBox="0 0 41 26" fill="none">
  <path d="M33.3011 12.1176C33.3945 13.8963 33.1024 15.7049 32.4644 17.3465C29.1811 19.2207 24.4708 21.1644 18.572 21.6453C19.5817 21.8162 29.0758 21.2936 34.2412 17.5492C34.1776 17.6168 32.5936 19.2505 30.789 20.3893C25.8004 27.3592 14.7879 27.0849 10.0995 20.0713C12.7368 19.3896 14.289 18.6503 14.289 18.6503C8.88115 19.7135 1.15389 20.4072 0.0647561 17.6367C-0.453972 15.9374 2.17942 13.481 6.68301 11.0563C6.67109 11.1497 6.66115 11.2451 6.65122 11.3385C1.49772 14.4568 1.17972 17.3306 7.35875 17.3684C11.5503 17.3366 15.7677 16.5277 21.2134 14.9119C26.6352 13.2047 30.5763 11.5253 34.0723 9.20402C39.1761 5.72006 37.3059 3.51401 31.2878 3.80815C31.2282 3.7366 31.1666 3.66307 31.105 3.59351C42.5091 2.41695 43.3756 6.87873 33.3011 12.1196V12.1176Z" />
  <path fill-rule="evenodd" clip-rule="evenodd" d="M32.4126 9.23378C32.4901 9.18807 32.5716 9.1364 32.6551 9.08472C26.9272 -6.72726 4.15087 0.417546 8.26293 16.5376C16.028 16.1103 25.5976 13.2086 32.4126 9.23378ZM18.6594 12.1652L23.4015 6.195C23.4631 6.11749 23.4829 6.01017 23.4511 5.91676C23.4213 5.82335 23.3438 5.74783 23.2484 5.72001L15.9147 3.63917C15.6961 3.56961 15.4695 3.80015 15.549 4.01877L18.1426 12.0698C18.2062 12.2904 18.5242 12.3501 18.6614 12.1652H18.6594Z"/>
</svg>