<svg xmlns="http://www.w3.org/2000/svg" width="32" height="33" viewBox="0 0 32 33" fill="none">
    <path d="M27.5045 21.8319C27.4008 21.7069 27.2989 21.5819 27.1989 21.4613C25.8239 19.7981 24.992 18.7944 24.992 14.0863C24.992 11.6488 24.4089 9.64875 23.2595 8.14875C22.412 7.04062 21.2664 6.2 19.7564 5.57875C19.737 5.56794 19.7196 5.55376 19.7052 5.53687C19.162 3.71812 17.6758 2.5 15.9995 2.5C14.3233 2.5 12.8377 3.71812 12.2945 5.535C12.28 5.55127 12.2629 5.565 12.2439 5.57562C8.72016 7.02625 7.00766 9.80938 7.00766 14.0844C7.00766 18.7944 6.17704 19.7981 4.80079 21.4594C4.70078 21.58 4.59891 21.7025 4.49516 21.83C4.22716 22.1532 4.05736 22.5464 4.00586 22.9631C3.95435 23.3798 4.0233 23.8025 4.20453 24.1812C4.59016 24.9937 5.41204 25.4981 6.35016 25.4981H25.6558C26.5895 25.4981 27.4058 24.9944 27.7927 24.1856C27.9747 23.8068 28.0443 23.3837 27.9932 22.9666C27.9421 22.5494 27.7726 22.1556 27.5045 21.8319ZM15.9995 30.5C16.9027 30.4993 17.7888 30.2541 18.5639 29.7905C19.339 29.327 19.9742 28.6622 20.402 27.8669C20.4222 27.8288 20.4321 27.7861 20.4309 27.743C20.4297 27.6999 20.4174 27.6578 20.3951 27.6209C20.3729 27.584 20.3414 27.5534 20.3039 27.5322C20.2663 27.5111 20.2239 27.5 20.1808 27.5H11.8195C11.7764 27.4998 11.7339 27.5109 11.6962 27.532C11.6586 27.5532 11.6271 27.5837 11.6047 27.6206C11.5824 27.6576 11.57 27.6997 11.5688 27.7428C11.5675 27.786 11.5775 27.8287 11.5977 27.8669C12.0255 28.6621 12.6606 29.3268 13.4355 29.7904C14.2105 30.2539 15.0965 30.4992 15.9995 30.5Z" fill="white"/>
</svg>