<svg xmlns="http://www.w3.org/2000/svg" width="20" height="20" viewBox="0 0 20 20" fill="none">
  <path d="M13 6.5C13 5.83696 12.7366 5.20107 12.2678 4.73223C11.7989 4.26339 11.163 4 10.5 4H4.5C3.83696 4 3.20107 4.26339 2.73223 4.73223C2.26339 5.20107 2 5.83696 2 6.5V13.5C2 14.163 2.26339 14.7989 2.73223 15.2678C3.20107 15.7366 3.83696 16 4.5 16H10.5C11.163 16 11.7989 15.7366 12.2678 15.2678C12.7366 14.7989 13 14.163 13 13.5V6.5ZM14 7.93V12.082L16.764 14.432C16.8731 14.5248 17.0065 14.5845 17.1485 14.6039C17.2904 14.6233 17.435 14.6016 17.565 14.5414C17.695 14.4812 17.8051 14.3851 17.8822 14.2643C17.9593 14.1436 18.0001 14.0033 18 13.86V6.193C17.9998 6.05057 17.959 5.91116 17.8824 5.79107C17.8058 5.67098 17.6966 5.57517 17.5676 5.51485C17.4386 5.45454 17.2951 5.43221 17.1538 5.45047C17.0126 5.46874 16.8794 5.52685 16.77 5.618L14 7.93Z"/>
</svg>