<svg xmlns="http://www.w3.org/2000/svg" width="20" height="21" viewBox="0 0 20 21" fill="none">
  <path d="M8.72226 12.865C8.77124 13.1912 8.74934 13.5241 8.65806 13.841C8.56679 14.158 8.40828 14.4515 8.19334 14.7016C7.9784 14.9517 7.7121 15.1525 7.41257 15.2903C7.11305 15.4281 6.78736 15.4996 6.4577 15.5C5.85039 15.4996 5.26808 15.258 4.83864 14.8283C4.40921 14.3986 4.16776 13.816 4.16732 13.2083C4.16776 12.6007 4.40921 12.018 4.83864 11.5884C5.26808 11.1587 5.85039 10.9171 6.4577 10.9167C7.15064 10.9167 7.77363 11.2267 8.19339 11.7158L10.0165 10.5L8.19339 9.28417C7.97899 9.53497 7.7128 9.73629 7.41316 9.87425C7.11352 10.0122 6.78754 10.0835 6.4577 10.0833C5.85039 10.0829 5.26808 9.84131 4.83864 9.41163C4.40921 8.98196 4.16776 8.39932 4.16732 7.79167C4.16776 7.18401 4.40921 6.60138 4.83864 6.1717C5.26808 5.74203 5.85039 5.50044 6.4577 5.5C6.78739 5.50017 7.11316 5.57151 7.41279 5.70914C7.71241 5.84677 7.97884 6.04746 8.19388 6.2975C8.40892 6.54755 8.56752 6.84107 8.65885 7.15804C8.75018 7.475 8.77209 7.80795 8.72309 8.13417L11.1434 9.74833L14.8571 7.27083C14.9254 7.22423 15.0022 7.19163 15.0831 7.17492C15.164 7.15822 15.2474 7.15773 15.3285 7.17349C15.4096 7.18926 15.4867 7.22096 15.5555 7.26676C15.6243 7.31257 15.6833 7.37156 15.7291 7.44033C15.7749 7.50911 15.8066 7.58629 15.8224 7.66742C15.8382 7.74854 15.8378 7.832 15.8212 7.91296C15.8045 7.99392 15.772 8.07077 15.7255 8.13907C15.6789 8.20736 15.6193 8.26574 15.5501 8.31083L8.72309 12.865L8.72226 12.865ZM6.4577 6.74917C5.88385 6.74917 5.41662 7.21667 5.41662 7.79083L5.41745 7.79083C5.41745 7.99689 5.47853 8.19832 5.59296 8.36964C5.70739 8.54096 5.87004 8.67447 6.06032 8.75329C6.2506 8.8321 6.45997 8.85268 6.66194 8.81242C6.86391 8.77216 7.04942 8.67287 7.19498 8.52711C7.34055 8.38134 7.43963 8.19566 7.47971 7.99354C7.51979 7.79142 7.49905 7.58195 7.42013 7.39163C7.3412 7.2013 7.20763 7.03867 7.03632 6.92431C6.865 6.80995 6.66364 6.749 6.4577 6.74917ZM6.4577 12.1658C6.18879 12.1766 5.93448 12.2911 5.74802 12.4852C5.56157 12.6794 5.45743 12.9382 5.45743 13.2075C5.45743 13.4768 5.56157 13.7356 5.74802 13.9298C5.93448 14.1239 6.18879 14.2384 6.4577 14.2492C6.62516 14.2487 6.79006 14.208 6.93845 14.1303C7.08683 14.0526 7.21433 13.9403 7.31016 13.8029C7.406 13.6655 7.46734 13.507 7.48901 13.3408C7.51068 13.1747 7.49203 13.0057 7.43465 12.8483L7.43048 12.8375C7.35531 12.6402 7.22207 12.4704 7.04838 12.3504C6.8747 12.2305 6.66873 12.1661 6.4577 12.1658ZM15.7225 13.5542C15.6306 13.6921 15.4877 13.7878 15.3253 13.8203C15.1628 13.8528 14.9942 13.8194 14.8563 13.7275L12.2686 12.0008L13.3955 11.25L15.5501 12.6875C15.6185 12.7329 15.6773 12.7913 15.7231 12.8595C15.7688 12.9277 15.8007 13.0043 15.8168 13.0848C15.8329 13.1653 15.8329 13.2483 15.8169 13.3288C15.8008 13.4094 15.769 13.4859 15.7233 13.5542L15.7225 13.5542Z" fill="#E58320"/>
</svg>