<svg xmlns="http://www.w3.org/2000/svg" width="20" height="21" viewBox="0 0 20 21" fill="none">
  <path d="M5.625 8V6.75H2.5C2.16848 6.75 1.85054 6.8817 1.61612 7.11612C1.3817 7.35054 1.25 7.66848 1.25 8V18C1.25 18.3315 1.3817 18.6495 1.61612 18.8839C1.85054 19.1183 2.16848 19.25 2.5 19.25H12.5C12.8315 19.25 13.1495 19.1183 13.3839 18.8839C13.6183 18.6495 13.75 18.3315 13.75 18V12.375H12.5V18H2.5V8" fill="#E58320"/>
  <path d="M13.75 8H8.75V3H13.75V8ZM7.5 3V8C7.5 8.33152 7.6317 8.64946 7.86612 8.88388C8.10054 9.1183 8.41848 9.25 8.75 9.25H13.75C14.0815 9.25 14.3995 9.1183 14.6339 8.88388C14.8683 8.64946 15 8.33152 15 8V3C15 2.66848 14.8683 2.35054 14.6339 2.11612C14.3995 1.8817 14.0815 1.75 13.75 1.75H8.75C8.41848 1.75 8.10054 1.8817 7.86612 2.11612C7.6317 2.35054 7.5 2.66848 7.5 3ZM8.75 11.75V14.25H6.25V11.75H8.75ZM5 11.75V14.25C5 14.5815 5.1317 14.8995 5.36612 15.1339C5.60054 15.3683 5.91848 15.5 6.25 15.5H8.75C9.08152 15.5 9.39946 15.3683 9.63388 15.1339C9.8683 14.8995 10 14.5815 10 14.25V11.75C10 11.4185 9.8683 11.1005 9.63388 10.8661C9.39946 10.6317 9.08152 10.5 8.75 10.5H6.25C5.91848 10.5 5.60054 10.6317 5.36612 10.8661C5.1317 11.1005 5 11.4185 5 11.75ZM17.5 11.125V12.375H16.25V11.125H17.5ZM15 10.5V13C15 13.1658 15.0658 13.3247 15.1831 13.4419C15.3003 13.5592 15.4592 13.625 15.625 13.625H18.125C18.2908 13.625 18.4497 13.5592 18.5669 13.4419C18.6842 13.3247 18.75 13.1658 18.75 13V10.5C18.75 10.3342 18.6842 10.1753 18.5669 10.0581C18.4497 9.94085 18.2908 9.875 18.125 9.875H15.625C15.4592 9.875 15.3003 9.94085 15.1831 10.0581C15.0658 10.1753 15 10.3342 15 10.5Z" fill="#E58320"/>
</svg>