<svg xmlns="http://www.w3.org/2000/svg" width="22" height="22" viewBox="0 0 22 22" fill="none">
  <path d="M17.737 5.94703C17.9516 5.94727 18.1581 6.02946 18.3141 6.1768C18.4702 6.32414 18.5641 6.52552 18.5767 6.73979C18.5893 6.95405 18.5196 7.16504 18.3818 7.32963C18.244 7.49422 18.0486 7.6 17.8355 7.62535L17.737 7.63124H17.6688L16.8949 16.8944C16.8949 17.5388 16.6487 18.1588 16.2066 18.6277C15.7646 19.0965 15.16 19.3787 14.5168 19.4165L14.3686 19.4207H7.63171C6.28603 19.4207 5.18624 18.3689 5.11213 17.1049L5.10792 16.9643L4.33066 7.63124H4.26329C4.04866 7.63101 3.84221 7.54882 3.68614 7.40148C3.53007 7.25414 3.43615 7.05276 3.42357 6.83849C3.41099 6.62422 3.4807 6.41324 3.61846 6.24865C3.75622 6.08406 3.95163 5.97828 4.16477 5.95293L4.26329 5.94703H17.737ZM12.6843 2.57861C13.131 2.57861 13.5594 2.75606 13.8753 3.07191C14.1911 3.38776 14.3686 3.81614 14.3686 4.26282C14.3683 4.47746 14.2861 4.6839 14.1388 4.83998C13.9914 4.99605 13.7901 5.08997 13.5758 5.10255C13.3615 5.11513 13.1506 5.04541 12.986 4.90765C12.8214 4.76989 12.7156 4.57448 12.6902 4.36135L12.6843 4.26282H9.31592L9.31003 4.36135C9.28468 4.57448 9.1789 4.76989 9.01431 4.90765C8.84972 5.04541 8.63873 5.11513 8.42447 5.10255C8.2102 5.08997 8.00882 4.99605 7.86148 4.83998C7.71414 4.6839 7.63195 4.47746 7.63171 4.26282C7.63158 3.83792 7.79205 3.42866 8.08097 3.1171C8.36989 2.80554 8.7659 2.61469 9.18961 2.58282L9.31592 2.57861H12.6843Z" fill="white"/>
</svg>