<svg xmlns="http://www.w3.org/2000/svg" width="20" height="20" viewBox="0 0 20 20" fill="none">
  <path d="M4.29999 19.2C3.54999 19.2 2.80832 19.0167 2.07499 18.65C1.34165 18.2834 0.749988 17.8 0.299988 17.2C0.733321 17.2 1.17499 17.029 1.62499 16.687C2.07499 16.345 2.29999 15.8494 2.29999 15.2C2.29999 14.3667 2.59165 13.6584 3.17499 13.075C3.75832 12.4917 4.46665 12.2 5.29999 12.2C6.13332 12.2 6.84165 12.4917 7.42499 13.075C8.00832 13.6584 8.29999 14.3667 8.29999 15.2C8.29999 16.3 7.90832 17.2417 7.12499 18.025C6.34165 18.8084 5.39999 19.2 4.29999 19.2ZM10.05 13.2L7.29999 10.45L16.95 0.800049L19.7 3.55005L10.05 13.2Z"/>
</svg>