<svg xmlns="http://www.w3.org/2000/svg" width="30" height="31" viewBox="0 0 30 31" fill="none">
  <path d="M4.335 3.70508L25.68 3.70508C26.415 3.70508 27 4.29008 27 5.02508L27 26.3851C27 27.1051 26.415 27.7051 25.68 27.7051H19.56V18.4051H22.68L23.145 14.7901H19.56V12.4801C19.56 11.4301 19.86 10.7101 21.36 10.7101H23.28V7.47008C22.95 7.42508 21.81 7.33508 20.49 7.33508C17.715 7.33508 15.825 9.01508 15.825 12.1201V14.7901H12.69V18.4051H15.825L15.825 27.7051H4.335C3.98352 27.7051 3.64621 27.5665 3.39628 27.3194C3.14634 27.0723 3.00395 26.7365 3 26.3851L3 5.02508C3 4.29008 3.6 3.70508 4.335 3.70508Z" fill="#2B2B2B"/>
</svg>