<svg xmlns="http://www.w3.org/2000/svg" width="31" height="31" viewBox="0 0 31 31" fill="none">
  <path d="M27.9236 13.257H26.9167V13.2051L15.6667 13.2051V18.2051H22.7311C21.7005 21.1157 18.9311 23.2051 15.6667 23.2051C11.5249 23.2051 8.16675 19.847 8.16675 15.7051C8.16675 11.5632 11.5249 8.20508 15.6667 8.20508C17.5786 8.20508 19.318 8.92633 20.6424 10.1045L24.178 6.56883C21.9455 4.4882 18.9592 3.20508 15.6667 3.20508C8.76362 3.20508 3.16675 8.80195 3.16675 15.7051C3.16675 22.6082 8.76362 28.2051 15.6667 28.2051C22.5699 28.2051 28.1667 22.6082 28.1667 15.7051C28.1667 14.867 28.0805 14.0488 27.9236 13.257Z" fill="#FFE600"/>
  <path d="M4.60791 9.88695L8.71479 12.8988C9.82604 10.1476 12.5173 8.20508 15.6667 8.20508C17.5785 8.20508 19.3179 8.92633 20.6423 10.1045L24.1779 6.56883C21.9454 4.4882 18.9592 3.20508 15.6667 3.20508C10.8654 3.20508 6.70166 5.9157 4.60791 9.88695Z" fill="#FF3D00"/>
  <path d="M15.6667 28.2055C18.8954 28.2055 21.8292 26.9699 24.0473 24.9605L20.1786 21.6868C18.8814 22.6733 17.2964 23.2068 15.6667 23.2055C12.4154 23.2055 9.65482 21.1324 8.61482 18.2393L4.53857 21.3799C6.60732 25.428 10.8086 28.2055 15.6667 28.2055Z" fill="#4CAF50"/>
  <path d="M27.9236 13.257H26.9167V13.2051L15.6667 13.2051V18.2051H22.7311C22.2381 19.5903 21.3501 20.8008 20.1767 21.687L20.1786 21.6857L24.0474 24.9595C23.7736 25.2082 28.1667 21.9551 28.1667 15.7051C28.1667 14.867 28.0805 14.0488 27.9236 13.257Z" fill="#1976D2"/>
</svg>