<svg xmlns="http://www.w3.org/2000/svg" viewBox="0 0 14 16" fill="none">
  <path d="M8.002 0.887991C7.72668 0.640626 7.36962 0.503784 6.9995 0.503784C6.62938 0.503784 6.27232 0.640626 5.997 0.887991L0.497 5.82999C0.340623 5.97062 0.215564 6.14256 0.129942 6.33465C0.0443201 6.52673 4.81578e-05 6.73468 0 6.94499V14C0 14.3978 0.158035 14.7793 0.43934 15.0607C0.720644 15.342 1.10218 15.5 1.5 15.5H3.5C3.89782 15.5 4.27936 15.342 4.56066 15.0607C4.84196 14.7793 5 14.3978 5 14V9.99999C5 9.86738 5.05268 9.74021 5.14645 9.64644C5.24021 9.55267 5.36739 9.49999 5.5 9.49999H8.5C8.63261 9.49999 8.75979 9.55267 8.85355 9.64644C8.94732 9.74021 9 9.86738 9 9.99999V14C9 14.3978 9.15804 14.7793 9.43934 15.0607C9.72064 15.342 10.1022 15.5 10.5 15.5H12.5C12.8978 15.5 13.2794 15.342 13.5607 15.0607C13.842 14.7793 14 14.3978 14 14V6.94499C14 6.73468 13.9557 6.52673 13.8701 6.33465C13.7844 6.14256 13.6594 5.97062 13.503 5.82999L8.003 0.887991H8.002Z" fill="#E58320"/>
</svg>