<svg xmlns="http://www.w3.org/2000/svg" width="24" height="24" viewBox="0 0 24 24" fill="none">
  <path d="M11 11H13V12.4C13 12.5167 13.05 12.596 13.15 12.638C13.25 12.68 13.3417 12.659 13.425 12.575L15.65 10.35C15.75 10.25 15.8 10.1333 15.8 10C15.8 9.86667 15.75 9.75 15.65 9.65L13.425 7.425C13.3417 7.34167 13.25 7.321 13.15 7.363C13.05 7.405 13 7.484 13 7.6V9H11C10.1667 9 9.45834 9.29167 8.875 9.875C8.29167 10.4583 8 11.1667 8 12V13C8 13.2833 8.096 13.521 8.288 13.713C8.48 13.905 8.71734 14.0007 9 14C9.28334 14 9.521 13.904 9.713 13.712C9.905 13.52 10.0007 13.2827 10 13V12C10 11.7167 10.096 11.479 10.288 11.287C10.48 11.095 10.7173 10.9993 11 11ZM2 21C1.71667 21 1.479 20.904 1.287 20.712C1.095 20.52 0.999337 20.2827 1 20C1 19.7167 1.096 19.479 1.288 19.287C1.48 19.095 1.71734 18.9993 2 19H22C22.2833 19 22.521 19.096 22.713 19.288C22.905 19.48 23.0007 19.7173 23 20C23 20.2833 22.904 20.521 22.712 20.713C22.52 20.905 22.2827 21.0007 22 21H2ZM4 18C3.45 18 2.979 17.804 2.587 17.412C2.195 17.02 1.99934 16.5493 2 16V5C2 4.45 2.196 3.979 2.588 3.587C2.98 3.195 3.45067 2.99934 4 3H20C20.55 3 21.021 3.196 21.413 3.588C21.805 3.98 22.0007 4.45067 22 5V16C22 16.55 21.804 17.021 21.412 17.413C21.02 17.805 20.5493 18.0007 20 18H4ZM4 16H20V5H4V16Z"/>
</svg>