<svg xmlns="http://www.w3.org/2000/svg" width="24" height="24" viewBox="0 0 24 24" fill="none">
  <path d="M5.30769 20H19.6923C20.4115 20 21 19.4 21 18.6667C21 17.9333 20.4115 17.3333 19.6923 17.3333H5.30769C4.58846 17.3333 4 17.9333 4 18.6667C4 19.4 4.58846 20 5.30769 20ZM5.30769 13.3333H19.6923C20.4115 13.3333 21 12.7333 21 12C21 11.2667 20.4115 10.6667 19.6923 10.6667H5.30769C4.58846 10.6667 4 11.2667 4 12C4 12.7333 4.58846 13.3333 5.30769 13.3333ZM4 5.33333C4 6.06667 4.58846 6.66667 5.30769 6.66667H19.6923C20.4115 6.66667 21 6.06667 21 5.33333C21 4.6 20.4115 4 19.6923 4H5.30769C4.58846 4 4 4.6 4 5.33333Z" fill="white"/>
</svg>