<svg xmlns="http://www.w3.org/2000/svg" width="16" height="20" viewBox="0 0 16 20" fill="none">
  <g>
    <g clip-path="url(#clip0_116_11639)">
      <path d="M7.91669 14C8.97721 13.9989 9.99399 13.5771 10.7439 12.8272C11.4938 12.0773 11.9156 11.0605 11.9167 10V4C11.9167 2.93913 11.4953 1.92172 10.7451 1.17157C9.99497 0.421427 8.97755 0 7.91669 0C6.85582 0 5.83841 0.421427 5.08826 1.17157C4.33811 1.92172 3.91669 2.93913 3.91669 4V10C3.91779 11.0605 4.33957 12.0773 5.08948 12.8272C5.83938 13.5771 6.85616 13.9989 7.91669 14Z"/>
      <path d="M14.9167 10V8C14.9167 7.73478 14.8113 7.48043 14.6238 7.29289C14.4363 7.10536 14.1819 7 13.9167 7C13.6515 7 13.3971 7.10536 13.2096 7.29289C13.022 7.48043 12.9167 7.73478 12.9167 8V10C12.9167 11.3261 12.3899 12.5979 11.4522 13.5355C10.5145 14.4732 9.24277 15 7.91669 15C6.5906 15 5.31883 14.4732 4.38115 13.5355C3.44347 12.5979 2.91669 11.3261 2.91669 10V8C2.91669 7.73478 2.81133 7.48043 2.62379 7.29289C2.43626 7.10536 2.1819 7 1.91669 7C1.65147 7 1.39712 7.10536 1.20958 7.29289C1.02204 7.48043 0.916687 7.73478 0.916687 8L0.916687 10C0.919525 11.675 1.52247 13.2936 2.61619 14.5622C3.70992 15.8308 5.22203 16.6655 6.87835 16.915L6.91669 16.92V18H3.91669C3.78536 18 3.65533 18.0259 3.534 18.0761C3.41268 18.1264 3.30244 18.2 3.20958 18.2929C3.11672 18.3858 3.04306 18.496 2.99281 18.6173C2.94255 18.7386 2.91669 18.8687 2.91669 19C2.91669 19.1313 2.94255 19.2614 2.99281 19.3827C3.04306 19.504 3.11672 19.6143 3.20958 19.7071C3.30244 19.8 3.41268 19.8736 3.534 19.9239C3.65533 19.9741 3.78536 20 3.91669 20H11.9167C12.048 20 12.178 19.9741 12.2994 19.9239C12.4207 19.8736 12.5309 19.8 12.6238 19.7071C12.7167 19.6143 12.7903 19.504 12.8406 19.3827C12.8908 19.2614 12.9167 19.1313 12.9167 19C12.9167 18.8687 12.8908 18.7386 12.8406 18.6173C12.7903 18.496 12.7167 18.3858 12.6238 18.2929C12.5309 18.2 12.4207 18.1264 12.2994 18.0761C12.178 18.0259 12.048 18 11.9167 18H8.91669V16.92C12.325 16.4125 14.9109 13.5092 14.9167 10.0008V10Z" />
    </g>
  </g>
  <defs>
    <clipPath id="clip0_116_11639">
      <rect x="0.916687" width="14.1667" height="20" fill="white"/>
    </clipPath>
  </defs>
</svg>