<svg xmlns="http://www.w3.org/2000/svg" width="22" height="6" viewBox="0 0 22 6" fill="none">
  <path d="M3.125 0.75C3.46972 0.75 3.81106 0.817897 4.12954 0.949816C4.44802 1.08173 4.7374 1.27509 4.98116 1.51884C5.22491 1.7626 5.41827 2.05198 5.55018 2.37046C5.6821 2.68894 5.75 3.03028 5.75 3.375C5.75 3.71972 5.6821 4.06106 5.55018 4.37954C5.41827 4.69802 5.22491 4.9874 4.98116 5.23116C4.7374 5.47491 4.44802 5.66826 4.12954 5.80018C3.81106 5.9321 3.46972 6 3.125 6C2.42881 6 1.76113 5.72344 1.26884 5.23116C0.776562 4.73887 0.5 4.07119 0.5 3.375C0.5 2.67881 0.776562 2.01113 1.26884 1.51884C1.76113 1.02656 2.42881 0.75 3.125 0.75ZM11 0.75C11.3447 0.75 11.6861 0.817897 12.0045 0.949816C12.323 1.08173 12.6124 1.27509 12.8562 1.51884C13.0999 1.7626 13.2933 2.05198 13.4252 2.37046C13.5571 2.68894 13.625 3.03028 13.625 3.375C13.625 3.71972 13.5571 4.06106 13.4252 4.37954C13.2933 4.69802 13.0999 4.9874 12.8562 5.23116C12.6124 5.47491 12.323 5.66826 12.0045 5.80018C11.6861 5.9321 11.3447 6 11 6C10.3038 6 9.63613 5.72344 9.14384 5.23116C8.65156 4.73887 8.375 4.07119 8.375 3.375C8.375 2.67881 8.65156 2.01113 9.14384 1.51884C9.63613 1.02656 10.3038 0.75 11 0.75ZM18.875 0.75C19.2197 0.75 19.5611 0.817897 19.8795 0.949816C20.198 1.08173 20.4874 1.27509 20.7312 1.51884C20.9749 1.7626 21.1683 2.05198 21.3002 2.37046C21.4321 2.68894 21.5 3.03028 21.5 3.375C21.5 3.71972 21.4321 4.06106 21.3002 4.37954C21.1683 4.69802 20.9749 4.9874 20.7312 5.23116C20.4874 5.47491 20.198 5.66826 19.8795 5.80018C19.5611 5.9321 19.2197 6 18.875 6C18.1788 6 17.5111 5.72344 17.0188 5.23116C16.5266 4.73887 16.25 4.07119 16.25 3.375C16.25 2.67881 16.5266 2.01113 17.0188 1.51884C17.5111 1.02656 18.1788 0.75 18.875 0.75Z" />
</svg>