<svg xmlns="http://www.w3.org/2000/svg" width="17" height="16" viewBox="0 0 17 16" fill="none">
  <path d="M16.5 8C16.5 10.1217 15.6571 12.1566 14.1569 13.6569C12.6566 15.1571 10.6217 16 8.5 16C6.37827 16 4.34344 15.1571 2.84315 13.6569C1.34285 12.1566 0.5 10.1217 0.5 8C0.5 5.87827 1.34285 3.84344 2.84315 2.34315C4.34344 0.842855 6.37827 0 8.5 0C10.6217 0 12.6566 0.842855 14.1569 2.34315C15.6571 3.84344 16.5 5.87827 16.5 8ZM5.996 6.033H6.821C6.959 6.033 7.069 5.92 7.087 5.783C7.177 5.127 7.627 4.649 8.429 4.649C9.115 4.649 9.743 4.992 9.743 5.817C9.743 6.452 9.369 6.744 8.778 7.188C8.105 7.677 7.572 8.248 7.61 9.175L7.613 9.392C7.61405 9.45761 7.64085 9.52017 7.68762 9.5662C7.73439 9.61222 7.79738 9.63801 7.863 9.638H8.674C8.7403 9.638 8.80389 9.61166 8.85078 9.56478C8.89766 9.51789 8.924 9.4543 8.924 9.388V9.283C8.924 8.565 9.197 8.356 9.934 7.797C10.543 7.334 11.178 6.82 11.178 5.741C11.178 4.23 9.902 3.5 8.505 3.5C7.238 3.5 5.85 4.09 5.755 5.786C5.75363 5.81829 5.75888 5.85053 5.77043 5.88072C5.78198 5.91091 5.79958 5.93841 5.82216 5.96155C5.84473 5.98468 5.8718 6.00296 5.90169 6.01524C5.93159 6.02753 5.96368 6.03357 5.996 6.033ZM8.321 12.476C8.931 12.476 9.35 12.082 9.35 11.549C9.35 10.997 8.93 10.609 8.321 10.609C7.737 10.609 7.312 10.997 7.312 11.549C7.312 12.082 7.736 12.476 8.321 12.476Z" />
</svg>