<svg xmlns="http://www.w3.org/2000/svg" width="20" height="21" viewBox="0 0 20 21" fill="none">
  <path d="M1.66602 5.49996C1.66602 4.24579 2.31602 2.93329 3.33268 2.16663C3.33268 2.87079 3.90768 3.83329 4.99935 3.83329C5.66239 3.83329 6.29828 4.09668 6.76712 4.56553C7.23596 5.03437 7.49935 5.67025 7.49935 6.33329C7.49935 6.65496 7.43352 6.95996 7.32268 7.24246C7.94081 7.73303 8.54953 8.23535 9.14852 8.74913L7.41518 10.4825C6.90161 9.88331 6.3993 9.27459 5.90852 8.65663C5.61924 8.77206 5.31081 8.832 4.99935 8.83329C3.15768 8.83329 1.66602 7.34163 1.66602 5.49996ZM11.7927 11.2066L12.9102 10.0891C13.4277 10.3555 14.0007 10.4963 14.5827 10.5C15.5772 10.5 16.5311 10.1049 17.2343 9.40161C17.9376 8.69835 18.3327 7.74452 18.3327 6.74996C18.3327 6.14579 18.176 5.58246 17.9218 5.07746L14.9993 7.99996L13.3327 6.33329L16.2552 3.41079C15.7377 3.14438 15.1647 3.00363 14.5827 2.99996C13.5881 2.99996 12.6343 3.39505 11.931 4.09831C11.2278 4.80157 10.8327 5.7554 10.8327 6.74996C10.8327 7.35413 10.9893 7.91746 11.2435 8.42246L2.49935 17.1666L4.16602 18.8333L9.87268 13.1266C11.4422 14.7369 13.1053 16.2532 14.8535 17.6675L16.041 18.625L17.291 17.375L16.3335 16.1875C14.9192 14.4393 13.403 12.7761 11.7927 11.2066Z" fill="#E58320"/>
</svg>