<svg xmlns="http://www.w3.org/2000/svg" width="20" height="21" viewBox="0 0 20 21" fill="none">
  <path d="M18.75 5.49994C18.75 4.8369 18.4866 4.20102 18.0178 3.73218C17.5489 3.26333 16.913 2.99994 16.25 2.99994H15.625V2.39252C15.625 2.05619 15.3664 1.76752 15.0301 1.75072C14.9456 1.74665 14.8611 1.75978 14.7818 1.78931C14.7026 1.81884 14.6301 1.86417 14.5688 1.92253C14.5076 1.98089 14.4588 2.05108 14.4255 2.12885C14.3922 2.20662 14.375 2.29034 14.375 2.37494V2.99994H5.625V2.39252C5.625 2.05619 5.36641 1.76752 5.03008 1.75072C4.94557 1.74665 4.86112 1.75978 4.78184 1.78931C4.70255 1.81884 4.63009 1.86417 4.56884 1.92253C4.50759 1.98089 4.45883 2.05108 4.42551 2.12885C4.39219 2.20662 4.37501 2.29034 4.375 2.37494V2.99994H3.75C3.08696 2.99994 2.45107 3.26333 1.98223 3.73218C1.51339 4.20102 1.25 4.8369 1.25 5.49994V5.96869C1.25 6.01013 1.26646 6.04988 1.29576 6.07918C1.32507 6.10848 1.36481 6.12494 1.40625 6.12494H18.5938C18.6352 6.12494 18.6749 6.10848 18.7042 6.07918C18.7335 6.04988 18.75 6.01013 18.75 5.96869V5.49994ZM1.25 16.7499C1.25 17.413 1.51339 18.0489 1.98223 18.5177C2.45107 18.9866 3.08696 19.2499 3.75 19.2499H16.25C16.913 19.2499 17.5489 18.9866 18.0178 18.5177C18.4866 18.0489 18.75 17.413 18.75 16.7499V7.49213C18.75 7.46105 18.7377 7.43124 18.7157 7.40927C18.6937 7.38729 18.6639 7.37494 18.6328 7.37494H1.36719C1.33611 7.37494 1.3063 7.38729 1.28432 7.40927C1.26235 7.43124 1.25 7.46105 1.25 7.49213V16.7499ZM14.6875 8.62494C14.8729 8.62494 15.0542 8.67993 15.2083 8.78294C15.3625 8.88595 15.4827 9.03237 15.5536 9.20368C15.6246 9.37498 15.6432 9.56348 15.607 9.74534C15.5708 9.9272 15.4815 10.0942 15.3504 10.2254C15.2193 10.3565 15.0523 10.4458 14.8704 10.4819C14.6885 10.5181 14.5 10.4995 14.3287 10.4286C14.1574 10.3576 14.011 10.2375 13.908 10.0833C13.805 9.92912 13.75 9.74786 13.75 9.56244C13.75 9.3138 13.8488 9.07535 14.0246 8.89953C14.2004 8.72371 14.4389 8.62494 14.6875 8.62494ZM14.6875 11.7499C14.8729 11.7499 15.0542 11.8049 15.2083 11.9079C15.3625 12.011 15.4827 12.1574 15.5536 12.3287C15.6246 12.5 15.6432 12.6885 15.607 12.8703C15.5708 13.0522 15.4815 13.2192 15.3504 13.3504C15.2193 13.4815 15.0523 13.5708 14.8704 13.6069C14.6885 13.6431 14.5 13.6245 14.3287 13.5536C14.1574 13.4826 14.011 13.3625 13.908 13.2083C13.805 13.0541 13.75 12.8729 13.75 12.6874C13.75 12.4388 13.8488 12.2003 14.0246 12.0245C14.2004 11.8487 14.4389 11.7499 14.6875 11.7499ZM11.5625 8.62494C11.7479 8.62494 11.9292 8.67993 12.0833 8.78294C12.2375 8.88595 12.3577 9.03237 12.4286 9.20368C12.4996 9.37498 12.5182 9.56348 12.482 9.74534C12.4458 9.9272 12.3565 10.0942 12.2254 10.2254C12.0943 10.3565 11.9273 10.4458 11.7454 10.4819C11.5635 10.5181 11.375 10.4995 11.2037 10.4286C11.0324 10.3576 10.886 10.2375 10.783 10.0833C10.68 9.92912 10.625 9.74786 10.625 9.56244C10.625 9.3138 10.7238 9.07535 10.8996 8.89953C11.0754 8.72371 11.3139 8.62494 11.5625 8.62494ZM11.5625 11.7499C11.7479 11.7499 11.9292 11.8049 12.0833 11.9079C12.2375 12.011 12.3577 12.1574 12.4286 12.3287C12.4996 12.5 12.5182 12.6885 12.482 12.8703C12.4458 13.0522 12.3565 13.2192 12.2254 13.3504C12.0943 13.4815 11.9273 13.5708 11.7454 13.6069C11.5635 13.6431 11.375 13.6245 11.2037 13.5536C11.0324 13.4826 10.886 13.3625 10.783 13.2083C10.68 13.0541 10.625 12.8729 10.625 12.6874C10.625 12.4388 10.7238 12.2003 10.8996 12.0245C11.0754 11.8487 11.3139 11.7499 11.5625 11.7499ZM11.5625 14.8749C11.7479 14.8749 11.9292 14.9299 12.0833 15.0329C12.2375 15.136 12.3577 15.2824 12.4286 15.4537C12.4996 15.625 12.5182 15.8135 12.482 15.9953C12.4458 16.1772 12.3565 16.3442 12.2254 16.4754C12.0943 16.6065 11.9273 16.6958 11.7454 16.7319C11.5635 16.7681 11.375 16.7495 11.2037 16.6786C11.0324 16.6076 10.886 16.4875 10.783 16.3333C10.68 16.1791 10.625 15.9979 10.625 15.8124C10.625 15.5638 10.7238 15.3253 10.8996 15.1495C11.0754 14.9737 11.3139 14.8749 11.5625 14.8749ZM8.4375 11.7499C8.62292 11.7499 8.80418 11.8049 8.95835 11.9079C9.11252 12.011 9.23268 12.1574 9.30364 12.3287C9.37459 12.5 9.39316 12.6885 9.35699 12.8703C9.32081 13.0522 9.23152 13.2192 9.10041 13.3504C8.9693 13.4815 8.80225 13.5708 8.6204 13.6069C8.43854 13.6431 8.25004 13.6245 8.07873 13.5536C7.90743 13.4826 7.76101 13.3625 7.658 13.2083C7.55498 13.0541 7.5 12.8729 7.5 12.6874C7.5 12.4388 7.59877 12.2003 7.77459 12.0245C7.9504 11.8487 8.18886 11.7499 8.4375 11.7499ZM8.4375 14.8749C8.62292 14.8749 8.80418 14.9299 8.95835 15.0329C9.11252 15.136 9.23268 15.2824 9.30364 15.4537C9.37459 15.625 9.39316 15.8135 9.35699 15.9953C9.32081 16.1772 9.23152 16.3442 9.10041 16.4754C8.9693 16.6065 8.80225 16.6958 8.6204 16.7319C8.43854 16.7681 8.25004 16.7495 8.07873 16.6786C7.90743 16.6076 7.76101 16.4875 7.658 16.3333C7.55498 16.1791 7.5 15.9979 7.5 15.8124C7.5 15.5638 7.59877 15.3253 7.77459 15.1495C7.9504 14.9737 8.18886 14.8749 8.4375 14.8749ZM5.3125 11.7499C5.49792 11.7499 5.67918 11.8049 5.83335 11.9079C5.98752 12.011 6.10768 12.1574 6.17864 12.3287C6.24959 12.5 6.26816 12.6885 6.23199 12.8703C6.19581 13.0522 6.10652 13.2192 5.97541 13.3504C5.8443 13.4815 5.67725 13.5708 5.4954 13.6069C5.31354 13.6431 5.12504 13.6245 4.95373 13.5536C4.78243 13.4826 4.63601 13.3625 4.533 13.2083C4.42998 13.0541 4.375 12.8729 4.375 12.6874C4.375 12.4388 4.47377 12.2003 4.64959 12.0245C4.8254 11.8487 5.06386 11.7499 5.3125 11.7499ZM5.3125 14.8749C5.49792 14.8749 5.67918 14.9299 5.83335 15.0329C5.98752 15.136 6.10768 15.2824 6.17864 15.4537C6.24959 15.625 6.26816 15.8135 6.23199 15.9953C6.19581 16.1772 6.10652 16.3442 5.97541 16.4754C5.8443 16.6065 5.67725 16.6958 5.4954 16.7319C5.31354 16.7681 5.12504 16.7495 4.95373 16.6786C4.78243 16.6076 4.63601 16.4875 4.533 16.3333C4.42998 16.1791 4.375 15.9979 4.375 15.8124C4.375 15.5638 4.47377 15.3253 4.64959 15.1495C4.8254 14.9737 5.06386 14.8749 5.3125 14.8749Z" fill="#E58320"/>
</svg>