<svg xmlns="http://www.w3.org/2000/svg" width="32" height="32" viewBox="0 0 32 32" fill="none">
  <rect width="32" height="32" rx="4" fill="#8BBE78"/>
  <path d="M23 16C23.0005 16.2089 22.949 16.4144 22.8507 16.5965C22.7523 16.7786 22.6104 16.9311 22.4386 17.0392L11.7964 23.8189C11.6169 23.9333 11.4114 23.9957 11.2011 23.9998C10.9907 24.0038 10.7831 23.9493 10.5998 23.8419C10.4181 23.7362 10.2669 23.582 10.1614 23.3951C10.056 23.2083 10.0003 22.9956 10 22.7789V9.22109C10.0003 9.0044 10.056 8.7917 10.1614 8.60487C10.2669 8.41804 10.4181 8.26382 10.5998 8.15807C10.7831 8.05065 10.9907 7.99615 11.2011 8.00021C11.4114 8.00427 11.6169 8.06673 11.7964 8.18114L22.4386 14.9608C22.6104 15.0689 22.7523 15.2214 22.8507 15.4035C22.949 15.5856 23.0005 15.7911 23 16Z" fill="white"/>
</svg>