<svg xmlns="http://www.w3.org/2000/svg" width="25" height="24" viewBox="0 0 25 24" fill="none">
  <path d="M19.4288 7.73811L18.3681 8.79875L20.8001 11.2307H13.2688V3.6995L15.7008 6.13142L16.7615 5.07083L12.5188 0.828125L8.27619 5.07083L9.33688 6.13142L11.7688 3.6995V11.2307H4.19994L6.63191 8.79875L5.57127 7.73811L1.32861 11.9807L5.57122 16.2233L6.63191 15.1627L4.19989 12.7307H11.7688V20.2996L9.33688 17.8677L8.27619 18.9283L12.5188 23.171L16.7615 18.9283L15.7008 17.8677L13.2688 20.2996V12.7307H20.8001L18.3681 15.1627L19.4288 16.2233L23.6714 11.9807L19.4288 7.73811Z"/>
</svg>