<svg xmlns="http://www.w3.org/2000/svg" width="25" height="25" viewBox="0 0 25 25" fill="none">
  <path d="M5.1001 3.26538H19.1001C19.8957 3.26538 20.6588 3.58145 21.2214 4.14406C21.784 4.70667 22.1001 5.46973 22.1001 6.26538V15.2654C22.1001 16.061 21.784 16.8241 21.2214 17.3867C20.6588 17.9493 19.8957 18.2654 19.1001 18.2654H5.1001C4.30445 18.2654 3.54139 17.9493 2.97878 17.3867C2.41617 16.8241 2.1001 16.061 2.1001 15.2654V6.26538C2.1001 5.46973 2.41617 4.70667 2.97878 4.14406C3.54139 3.58145 4.30445 3.26538 5.1001 3.26538ZM9.1001 19.2654H15.1001C15.3653 19.2654 15.6197 19.3707 15.8072 19.5583C15.9947 19.7458 16.1001 20.0002 16.1001 20.2654C16.1001 20.5306 15.9947 20.785 15.8072 20.9725C15.6197 21.16 15.3653 21.2654 15.1001 21.2654H9.1001C8.83488 21.2654 8.58053 21.16 8.39299 20.9725C8.20545 20.785 8.1001 20.5306 8.1001 20.2654C8.1001 20.0002 8.20545 19.7458 8.39299 19.5583C8.58053 19.3707 8.83488 19.2654 9.1001 19.2654Z" />
</svg>