<svg xmlns="http://www.w3.org/2000/svg" width="24" height="24" viewBox="0 0 24 24" fill="none">
  <rect width="24" height="24" rx="4" fill="#4E4E4E"/>
  <path d="M17.0001 6.50001C17.0001 6.3674 17.0528 6.24022 17.1466 6.14645C17.2403 6.05269 17.3675 6.00001 17.5001 6.00001C17.6327 6.00001 17.7598 6.05269 17.8536 6.14645C17.9473 6.24022 18 6.3674 18 6.50001V17.5C18 17.6326 17.9473 17.7598 17.8536 17.8536C17.7598 17.9473 17.6327 18 17.5001 18C17.3675 18 17.2403 17.9473 17.1466 17.8536C17.0528 17.7598 17.0001 17.6326 17.0001 17.5V6.50001ZM6 7.25201C6 6.25101 7.11786 5.65601 7.94826 6.21551L14.9489 10.9315C15.118 11.0456 15.2567 11.1993 15.3528 11.3793C15.4488 11.5592 15.4994 11.76 15.5001 11.964C15.5007 12.1681 15.4514 12.3691 15.3564 12.5497C15.2615 12.7303 15.1238 12.8849 14.9554 13L7.95476 17.78C7.12486 18.346 6 17.752 6 16.747V7.25301V7.25201Z" fill="white"/>
</svg>