<svg xmlns="http://www.w3.org/2000/svg" width="17" height="17" viewBox="0 0 17 17" fill="none">
  <g>
    <path d="M4.83333 13.8333H2.83333V13.7666C2.83333 13.4333 3.1 13.1666 3.43333 13.1666C4.36667 13.1666 5.16667 12.5666 5.43333 11.6999C5.7 10.6333 5.1 9.49992 4.03333 9.23325C3.16667 8.96659 2.23333 9.36659 1.76667 10.1666C1.56667 10.4999 1.7 10.8999 2.03333 11.0999C2.36667 11.2999 2.76667 11.1666 2.96667 10.8333C3.16667 10.4999 3.56667 10.4333 3.9 10.6333C3.96667 10.6999 4.03333 10.6999 4.03333 10.7666C4.16667 10.9666 4.16667 11.1666 4.16667 11.3666C4.03333 11.6333 3.76667 11.8333 3.5 11.8333C2.36667 11.8333 1.5 12.6999 1.5 13.7666V14.4999C1.5 14.8999 1.76667 15.1666 2.16667 15.1666H4.83333C5.23333 15.1666 5.5 14.8999 5.5 14.4999C5.5 14.0999 5.23333 13.8333 4.83333 13.8333ZM7.5 5.16659H14.1667C14.5667 5.16659 14.8333 4.89992 14.8333 4.49992C14.8333 4.09992 14.5667 3.83325 14.1667 3.83325H7.5C7.1 3.83325 6.83333 4.09992 6.83333 4.49992C6.83333 4.89992 7.1 5.16659 7.5 5.16659ZM4.83333 6.49992H4.16667V2.49992C4.16667 2.09992 3.9 1.83325 3.5 1.83325C3.1 1.83325 2.83333 2.09992 2.83333 2.49992V3.16659H2.16667C1.76667 3.16659 1.5 3.43325 1.5 3.83325C1.5 4.23325 1.76667 4.49992 2.16667 4.49992H2.83333V6.49992H2.16667C1.76667 6.49992 1.5 6.76659 1.5 7.16659C1.5 7.56659 1.76667 7.83325 2.16667 7.83325H4.83333C5.23333 7.83325 5.5 7.56659 5.5 7.16659C5.5 6.76659 5.23333 6.49992 4.83333 6.49992ZM14.1667 11.1666H7.5C7.1 11.1666 6.83333 11.4333 6.83333 11.8333C6.83333 12.2333 7.1 12.4999 7.5 12.4999H14.1667C14.5667 12.4999 14.8333 12.2333 14.8333 11.8333C14.8333 11.4333 14.5667 11.1666 14.1667 11.1666Z"/>
  </g>
</svg>