<svg width="25" height="24" viewBox="0 0 25 24" fill="none" xmlns="http://www.w3.org/2000/svg">
<g id="fluent:ios-arrow-24-filled">
<path id="Vector" d="M9.68177 17.5495C9.62163 17.6131 9.57461 17.688 9.5434 17.7698C9.51219 17.8516 9.4974 17.9388 9.49987 18.0263C9.50235 18.1139 9.52204 18.2001 9.55783 18.28C9.59361 18.3599 9.64479 18.432 9.70844 18.4922C9.77209 18.5523 9.84696 18.5993 9.92878 18.6305C10.0106 18.6617 10.0978 18.6765 10.1853 18.6741C10.2728 18.6716 10.359 18.6519 10.4389 18.6161C10.5189 18.5803 10.591 18.5291 10.6511 18.4655L16.3178 12.4655C16.4348 12.3417 16.5 12.1778 16.5 12.0075C16.5 11.8371 16.4348 11.6733 16.3178 11.5495L10.6511 5.54882C10.5914 5.48378 10.5193 5.43125 10.4391 5.3943C10.3588 5.35736 10.2721 5.33671 10.1838 5.33358C10.0956 5.33044 10.0076 5.34487 9.92491 5.37604C9.84227 5.4072 9.76665 5.45448 9.70244 5.51511C9.63823 5.57575 9.5867 5.64854 9.55086 5.72926C9.51501 5.80998 9.49556 5.89701 9.49364 5.98531C9.49172 6.07361 9.50736 6.16141 9.53965 6.24361C9.57195 6.32581 9.62026 6.40078 9.68177 6.46415L14.9164 12.0075L9.68177 17.5495Z" fill="white"/>
</g>
</svg>
