<svg xmlns="http://www.w3.org/2000/svg" width="20" height="21" viewBox="0 0 20 21" fill="none">
  <path d="M3.33268 5.49996V17.1666H14.9993V18.8333H2.49935C1.99935 18.8333 1.66602 18.5 1.66602 18V5.49996H3.33268ZM6.66602 2.16663H16.666C17.108 2.16663 17.532 2.34222 17.8445 2.65478C18.1571 2.96734 18.3327 3.39127 18.3327 3.83329V13.8333C18.3327 14.7583 17.591 15.5 16.666 15.5H6.66602C6.22399 15.5 5.80007 15.3244 5.4875 15.0118C5.17494 14.6992 4.99935 14.2753 4.99935 13.8333V3.83329C4.99935 2.91663 5.74935 2.16663 6.66602 2.16663ZM13.5827 11.5833L13.2493 9.41663L14.8327 7.83329L12.666 7.49996L11.666 5.49996L10.666 7.49996L8.49935 7.83329L10.0827 9.33329L9.66602 11.5L11.666 10.5L13.5827 11.5833Z" fill="#E58320"/>
</svg>