<svg xmlns="http://www.w3.org/2000/svg" width="24" height="24" viewBox="0 0 24 24" fill="none">

  <path d="M5.61891 4.58168C5.01704 4.28173 4.35579 4.85554 4.52766 5.52781L5.78766 10.4398C5.81924 10.5632 5.88489 10.6743 5.97644 10.7591C6.068 10.844 6.18144 10.8989 6.30266 10.9171L12.4802 11.8378C12.6589 11.8639 12.6589 12.1338 12.4802 12.1606L6.30329 13.0806C6.18206 13.0988 6.06863 13.1537 5.97707 13.2386C5.88551 13.3234 5.81987 13.4345 5.78829 13.5579L4.52766 18.4725C4.35579 19.1441 5.01704 19.7179 5.61891 19.4186L19.0552 12.7357C19.6483 12.4409 19.6483 11.5594 19.0552 11.264L5.61891 4.58168Z"/>
</svg>