<svg xmlns="http://www.w3.org/2000/svg" width="28" height="28" viewBox="0 0 28 28" fill="none">
  <rect width="28" height="28" rx="2" />
  <path d="M17.6149 5.17222L23.8108 11.1039C23.8706 11.1612 23.9182 11.2299 23.9507 11.3058C23.9832 11.3817 24 11.4633 24 11.5457C24 11.6282 23.9832 11.7098 23.9507 11.7857C23.9182 11.8616 23.8706 11.9302 23.8108 11.9875L17.6149 17.9192C17.5582 17.9745 17.4911 18.0181 17.4174 18.0476C17.3437 18.0771 17.2648 18.0918 17.1853 18.091C17.0209 18.091 16.8633 18.0264 16.7472 17.9113C16.631 17.7962 16.5657 17.6401 16.5657 17.4774V14.4175C11.0307 14.6384 8.70102 17.7065 8.60188 17.8374C8.52301 17.9402 8.41415 18.0165 8.29003 18.056C8.16591 18.0956 8.03253 18.0963 7.90794 18.0583C7.78367 18.0186 7.67522 17.9411 7.59808 17.8368C7.52093 17.7325 7.47903 17.6067 7.47836 17.4774C7.47836 10.9157 12.9225 8.90305 16.5657 8.69851V5.61403C16.566 5.49335 16.6021 5.37543 16.6697 5.27502C16.7373 5.17461 16.8333 5.09616 16.9457 5.0495C17.057 5.00198 17.18 4.98827 17.2991 5.01012C17.4183 5.03197 17.5282 5.0884 17.6149 5.17222ZM8.92407 5.81857C7.88334 5.81857 6.88524 6.22802 6.14933 6.95684C5.41343 7.68566 5 8.67414 5 9.70485V19.1137C5 20.1444 5.41343 21.1329 6.14933 21.8617C6.88524 22.5906 7.88334 23 8.92407 23H18.4244C19.4652 23 20.4633 22.5906 21.1992 21.8617C21.9351 21.1329 22.3485 20.1444 22.3485 19.1137V18.7046C22.3485 18.5419 22.2832 18.3858 22.167 18.2707C22.0509 18.1557 21.8933 18.091 21.7289 18.091C21.5646 18.091 21.407 18.1557 21.2908 18.2707C21.1746 18.3858 21.1093 18.5419 21.1093 18.7046V19.1137C21.1093 19.8189 20.8265 20.4953 20.323 20.9939C19.8194 21.4926 19.1365 21.7728 18.4244 21.7728H8.92407C8.21199 21.7728 7.52908 21.4926 7.02557 20.9939C6.52205 20.4953 6.23918 19.8189 6.23918 19.1137V9.70485C6.23918 8.99963 6.52205 8.3233 7.02557 7.82463C7.52908 7.32597 8.21199 7.04582 8.92407 7.04582H12.6416C12.8059 7.04582 12.9635 6.98117 13.0797 6.86609C13.1959 6.75102 13.2612 6.59494 13.2612 6.4322C13.2612 6.26945 13.1959 6.11338 13.0797 5.9983C12.9635 5.88322 12.8059 5.81857 12.6416 5.81857H8.92407Z" fill="white"/>
</svg>