<svg xmlns="http://www.w3.org/2000/svg" width="16" height="15" viewBox="0 0 16 15" fill="none">
  <path d="M1.33301 4.16732V1.16732C1.33301 1.07891 1.36813 0.994128 1.43064 0.931616C1.49315 0.869103 1.57794 0.833984 1.66634 0.833984H6.33301C6.42141 0.833984 6.5062 0.869103 6.56871 0.931616C6.63122 0.994128 6.66634 1.07891 6.66634 1.16732V13.834C6.66634 13.9224 6.63122 14.0072 6.56871 14.0697C6.5062 14.1322 6.42141 14.1673 6.33301 14.1673H1.66634C1.57794 14.1673 1.49315 14.1322 1.43064 14.0697C1.36813 14.0072 1.33301 13.9224 1.33301 13.834V10.834M14.6663 10.834V13.834C14.6663 13.9224 14.6312 14.0072 14.5687 14.0697C14.5062 14.1322 14.4214 14.1673 14.333 14.1673H9.66634C9.57794 14.1673 9.49315 14.1322 9.43064 14.0697C9.36813 14.0072 9.33301 13.9224 9.33301 13.834V1.16732C9.33301 1.07891 9.36813 0.994128 9.43064 0.931616C9.49315 0.869103 9.57794 0.833984 9.66634 0.833984H14.333C14.4214 0.833984 14.5062 0.869103 14.5687 0.931616C14.6312 0.994128 14.6663 1.07891 14.6663 1.16732V4.16732M9.33301 7.50065L14.6663 7.50498M1.33301 7.50498L6.66634 7.50065" stroke="white" stroke-linecap="round" fill="none"/>
  <path d="M13.0755 9.09411L13.6061 8.56378L14.6665 7.50311L13.6061 6.44244L13.0755 5.91211M2.91815 9.09678L2.38815 8.56678L1.32715 7.50578L2.38782 6.44511L2.91815 5.91511" stroke-width="2" stroke-linecap="round" stroke-linejoin="round"/>
</svg>