<svg xmlns="http://www.w3.org/2000/svg" width="18" height="15" viewBox="0 0 18 15" fill="none">
  <path fill-rule="evenodd" clip-rule="evenodd" d="M3.55519 1.16001C3.67212 1.27731 3.73771 1.43622 3.73755 1.60185C3.7374 1.76747 3.67151 1.92626 3.55435 2.04334C2.83569 2.75853 2.26569 3.6089 1.87724 4.54543C1.48878 5.48196 1.28955 6.48611 1.29102 7.50001C1.2896 8.52549 1.49348 9.54088 1.89064 10.4863C2.28779 11.4318 2.8702 12.2882 3.60352 13.005C3.66349 13.0621 3.7115 13.1306 3.74477 13.2065C3.77804 13.2823 3.79589 13.364 3.79731 13.4469C3.79872 13.5297 3.78365 13.6119 3.75299 13.6889C3.72233 13.7658 3.67668 13.8359 3.61869 13.8951C3.56071 13.9542 3.49154 14.0012 3.41522 14.0334C3.3389 14.0656 3.25695 14.0823 3.17412 14.0825C3.09129 14.0827 3.00925 14.0665 2.93275 14.0347C2.85625 14.003 2.78683 13.9563 2.72852 13.8975C1.87649 13.0643 1.19978 12.0691 0.738228 10.9704C0.276679 9.87166 0.0396244 8.69172 0.0410218 7.50001C0.0410218 5.02334 1.04686 2.78001 2.67102 1.15917C2.78832 1.04224 2.94724 0.976651 3.11286 0.976807C3.27849 0.976963 3.43811 1.04285 3.55519 1.16001ZM14.5135 1.22001C14.6319 1.10417 14.7915 1.04007 14.9571 1.04179C15.1227 1.04351 15.2809 1.11091 15.3969 1.22917C17.0407 2.90214 17.9605 5.15457 17.9577 7.50001C17.9577 9.97001 16.9577 12.2083 15.3402 13.8283C15.2231 13.9457 15.0641 14.0117 14.8983 14.0119C14.7325 14.012 14.5734 13.9463 14.456 13.8292C14.3387 13.712 14.2726 13.5531 14.2725 13.3873C14.2723 13.2214 14.3381 13.0624 14.4552 12.945C15.1705 12.2303 15.7377 11.3814 16.1242 10.4471C16.5108 9.51267 16.709 8.51118 16.7077 7.50001C16.7106 5.48179 15.9191 3.5435 14.5044 2.10417C14.3884 1.98589 14.3242 1.82641 14.3257 1.66078C14.3273 1.49515 14.3945 1.33692 14.5127 1.22084L14.5135 1.22001ZM5.92269 3.74001C6.03595 3.86102 6.0965 4.02206 6.09103 4.18771C6.08556 4.35337 6.01451 4.51006 5.89352 4.62334C5.10269 5.36334 4.62352 6.37501 4.62352 7.48501C4.62352 8.60834 5.11435 9.63084 5.92185 10.3733C6.04385 10.4856 6.11626 10.6418 6.12313 10.8074C6.13001 10.9731 6.0708 11.1347 5.95852 11.2567C5.84625 11.3787 5.69011 11.4511 5.52445 11.458C5.35879 11.4648 5.19719 11.4056 5.07519 11.2933C4.03185 10.3342 3.37352 8.98501 3.37352 7.48501C3.37352 6.00251 4.01602 4.66834 5.04019 3.71001C5.16131 3.59686 5.32241 3.53645 5.48807 3.54207C5.65372 3.5477 5.81036 3.6189 5.92352 3.74001H5.92269ZM12.1177 3.77167C12.2322 3.65194 12.3896 3.58257 12.5552 3.57882C12.7209 3.57507 12.8812 3.63725 13.001 3.75167C13.9985 4.70584 14.6235 6.02417 14.6235 7.48501C14.6235 8.96417 13.9844 10.2958 12.9652 11.2525C12.9057 11.3103 12.8353 11.3557 12.7581 11.386C12.6809 11.4163 12.5984 11.4309 12.5154 11.429C12.4325 11.4272 12.3508 11.4088 12.275 11.375C12.1993 11.3412 12.131 11.2926 12.0742 11.2322C12.0174 11.1717 11.9732 11.1006 11.9442 11.0229C11.9152 10.9452 11.9019 10.8625 11.9052 10.7796C11.9085 10.6967 11.9282 10.6153 11.9632 10.5401C11.9983 10.4649 12.048 10.3975 12.1094 10.3417C12.8969 9.60251 13.3735 8.59167 13.3735 7.48501C13.3735 6.39084 12.9077 5.39167 12.1369 4.65501C12.0172 4.54038 11.948 4.38294 11.9444 4.21731C11.9408 4.05167 12.0032 3.89138 12.1177 3.77167Z" fill="#E58320"/>
  <path d="M10.3787 6.20921C11.1254 6.75754 11.4987 7.03171 11.4987 7.50088C11.4987 7.96921 11.1254 8.24254 10.3787 8.79087C10.184 8.93512 9.98443 9.07269 9.78036 9.20337C9.6162 9.30754 9.42953 9.41504 9.2362 9.52088C8.4912 9.92921 8.11953 10.1325 7.78536 9.90671C7.4512 9.68171 7.42036 9.20837 7.36036 8.26421C7.3437 7.99754 7.33203 7.73504 7.33203 7.50004C7.33203 7.26504 7.34286 7.00337 7.36036 6.73587C7.42036 5.79171 7.4512 5.31921 7.78536 5.09421C8.1187 4.86837 8.4912 5.07171 9.23536 5.47921C9.42953 5.58504 9.6162 5.69254 9.78036 5.79671C9.9687 5.91587 10.1729 6.05837 10.3787 6.20921Z" fill="#E58320"/>
</svg>