<svg xmlns="http://www.w3.org/2000/svg" width="20" height="21" viewBox="0 0 20 21" fill="none">
  <path d="M7.3 10.5C9.28843 10.5 10.9 9.19429 10.9 7.58329C10.9 5.97229 9.28843 4.66663 7.3 4.66663C5.31156 4.66663 3.7 5.97229 3.7 7.58329C3.7 9.19429 5.31156 10.5 7.3 10.5ZM9.82 11.2291H9.35031C8.72593 11.4615 8.03125 11.5937 7.3 11.5937C6.56875 11.5937 5.87687 11.4615 5.24969 11.2291H4.78C2.69312 11.2291 1 12.6009 1 14.2916V15.2395C1 15.8434 1.60469 16.3333 2.35 16.3333H12.25C12.9953 16.3333 13.6 15.8434 13.6 15.2395V14.2916C13.6 12.6009 11.9069 11.2291 9.82 11.2291ZM18.9044 8.30334L18.1225 7.66305C17.9931 7.55595 17.7822 7.55595 17.65 7.66077L14.7025 10.0306L13.4228 8.98694C13.2934 8.87984 13.0825 8.87984 12.9503 8.98466L12.16 9.6204C12.0278 9.72522 12.0278 9.89612 12.1572 10.0032L14.455 11.8785C14.5844 11.9856 14.7953 11.9856 14.9275 11.8808L18.9016 8.68616C19.0309 8.57906 19.0337 8.40816 18.9044 8.30334Z" fill="#E58320"/>
</svg>