<svg xmlns="http://www.w3.org/2000/svg" width="16" height="16" viewBox="0 0 16 16">
  <path d="M8.52069 1.5832C8.26669 1.26654 7.73335 1.26654 7.47935 1.5832L2.14602 8.24987C2.06778 8.34801 2.0188 8.46623 2.00471 8.59094C1.99062 8.71566 2.01198 8.84182 2.06635 8.95495C2.12072 9.06807 2.20589 9.16357 2.31208 9.23048C2.41827 9.29738 2.54118 9.33299 2.66669 9.3332H5.33335V13.9999C5.33335 14.1767 5.40359 14.3463 5.52862 14.4713C5.65364 14.5963 5.82321 14.6665 6.00002 14.6665H10C10.1768 14.6665 10.3464 14.5963 10.4714 14.4713C10.5964 14.3463 10.6667 14.1767 10.6667 13.9999V9.3332H13.3334C13.4589 9.33299 13.5818 9.29738 13.688 9.23048C13.7942 9.16357 13.8793 9.06807 13.9337 8.95495C13.9881 8.84182 14.0094 8.71566 13.9953 8.59094C13.9812 8.46623 13.9323 8.34801 13.854 8.24987L8.52069 1.5832ZM10 7.99987H9.33335V13.3332H6.66669V7.99987H4.05402L8.00002 3.0672L11.946 7.99987H10Z" />
</svg>